<?xml version="1.0" encoding="UTF-8" standalone="no"?>
<!-- Created with Inkscape (http://www.inkscape.org/) -->

<svg
   xmlns:osb="http://www.openswatchbook.org/uri/2009/osb"
   xmlns:dc="http://purl.org/dc/elements/1.1/"
   xmlns:cc="http://creativecommons.org/ns#"
   xmlns:rdf="http://www.w3.org/1999/02/22-rdf-syntax-ns#"
   xmlns:svg="http://www.w3.org/2000/svg"
   xmlns="http://www.w3.org/2000/svg"
   xmlns:xlink="http://www.w3.org/1999/xlink"
   xmlns:sodipodi="http://sodipodi.sourceforge.net/DTD/sodipodi-0.dtd"
   xmlns:inkscape="http://www.inkscape.org/namespaces/inkscape"
   width="1000"
   height="500"
   viewBox="0 0 264.58334 132.29166"
   version="1.1"
   id="svg8"
   sodipodi:docname="conditional-email.svg"
   inkscape:version="0.92.3 (2405546, 2018-03-11)">
  <defs
     id="defs2">
    <marker
       id="marker2543"
       inkscape:isstock="true"
       inkscape:stockid="Arrow2Send"
       orient="auto"
       refX="0"
       refY="0"
       style="overflow:visible">
      <path
         d="M 8.72,4.03 -2.21,0.02 8.72,-4 c -1.75,2.37 -1.74,5.62 0,8.03 z"
         id="path2541"
         style="fill:#000000;fill-opacity:1;stroke:#000000;stroke-opacity:1"
         transform="matrix(-0.3,0,0,-0.3,0.69,0)"
         inkscape:connector-curvature="0" />
    </marker>
    <marker
       id="marker2467"
       inkscape:isstock="true"
       inkscape:stockid="Arrow2Sstart"
       orient="auto"
       refX="0"
       refY="0"
       style="overflow:visible">
      <path
         d="M 8.72,4.03 -2.21,0.02 8.72,-4 c -1.75,2.37 -1.74,5.62 0,8.03 z"
         id="path2465"
         style="fill:#000000;fill-opacity:1;stroke:#000000;stroke-opacity:1"
         transform="matrix(0.3,0,0,0.3,-0.69,0)"
         inkscape:connector-curvature="0" />
    </marker>
    <marker
       id="marker2065"
       inkscape:isstock="true"
       inkscape:stockid="Arrow2Send"
       orient="auto"
       refX="0"
       refY="0"
       style="overflow:visible">
      <path
         d="M 8.72,4.03 -2.21,0.02 8.72,-4 c -1.75,2.37 -1.74,5.62 0,8.03 z"
         id="path2063"
         style="fill:#000000;fill-opacity:1;stroke:#000000;stroke-opacity:1"
         transform="matrix(-0.3,0,0,-0.3,0.69,0)"
         inkscape:connector-curvature="0" />
    </marker>
    <marker
       id="marker2001"
       inkscape:isstock="true"
       inkscape:stockid="Arrow2Sstart"
       orient="auto"
       refX="0"
       refY="0"
       style="overflow:visible">
      <path
         d="M 8.72,4.03 -2.21,0.02 8.72,-4 c -1.75,2.37 -1.74,5.62 0,8.03 z"
         id="path1999"
         style="fill:#000000;fill-opacity:1;stroke:#000000;stroke-opacity:1"
         transform="matrix(0.3,0,0,0.3,-0.69,0)"
         inkscape:connector-curvature="0" />
    </marker>
    <marker
       id="marker1925"
       inkscape:isstock="true"
       inkscape:stockid="Arrow2Send"
       orient="auto"
       refX="0"
       refY="0"
       style="overflow:visible">
      <path
         d="M 8.72,4.03 -2.21,0.02 8.72,-4 c -1.75,2.37 -1.74,5.62 0,8.03 z"
         id="path1923"
         style="fill:#000000;fill-opacity:1;stroke:#000000;stroke-opacity:1"
         transform="matrix(-0.3,0,0,-0.3,0.69,0)"
         inkscape:connector-curvature="0" />
    </marker>
    <marker
       id="marker1873"
       inkscape:isstock="true"
       inkscape:stockid="Arrow2Sstart"
       orient="auto"
       refX="0"
       refY="0"
       style="overflow:visible">
      <path
         d="M 8.72,4.03 -2.21,0.02 8.72,-4 c -1.75,2.37 -1.74,5.62 0,8.03 z"
         id="path1871"
         style="fill:#000000;fill-opacity:1;stroke:#000000;stroke-opacity:1"
         transform="matrix(0.3,0,0,0.3,-0.69,0)"
         inkscape:connector-curvature="0" />
    </marker>
    <marker
       id="marker1797"
       inkscape:isstock="true"
       inkscape:stockid="Arrow2Send"
       orient="auto"
       refX="0"
       refY="0"
       style="overflow:visible">
      <path
         d="M 8.72,4.03 -2.21,0.02 8.72,-4 c -1.75,2.37 -1.74,5.62 0,8.03 z"
         id="path1795"
         style="fill:#000000;fill-opacity:1;stroke:#000000;stroke-opacity:1"
         transform="matrix(-0.3,0,0,-0.3,0.69,0)"
         inkscape:connector-curvature="0" />
    </marker>
    <marker
       id="marker1757"
       inkscape:isstock="true"
       inkscape:stockid="Arrow2Sstart"
       orient="auto"
       refX="0"
       refY="0"
       style="overflow:visible">
      <path
         d="M 8.72,4.03 -2.21,0.02 8.72,-4 c -1.75,2.37 -1.74,5.62 0,8.03 z"
         id="path1755"
         style="fill:#000000;fill-opacity:1;stroke:#000000;stroke-opacity:1"
         transform="matrix(0.3,0,0,0.3,-0.69,0)"
         inkscape:connector-curvature="0" />
    </marker>
    <marker
       id="marker1693"
       inkscape:isstock="true"
       inkscape:stockid="Arrow2Send"
       orient="auto"
       refX="0"
       refY="0"
       style="overflow:visible">
      <path
         d="M 8.72,4.03 -2.21,0.02 8.72,-4 c -1.75,2.37 -1.74,5.62 0,8.03 z"
         id="path1691"
         style="fill:#000000;fill-opacity:1;stroke:#000000;stroke-opacity:1"
         transform="matrix(-0.3,0,0,-0.3,0.69,0)"
         inkscape:connector-curvature="0" />
    </marker>
    <marker
       id="marker1665"
       inkscape:isstock="true"
       inkscape:stockid="Arrow2Sstart"
       orient="auto"
       refX="0"
       refY="0"
       style="overflow:visible">
      <path
         d="M 8.72,4.03 -2.21,0.02 8.72,-4 c -1.75,2.37 -1.74,5.62 0,8.03 z"
         id="path1663"
         style="fill:#000000;fill-opacity:1;stroke:#000000;stroke-opacity:1"
         transform="matrix(0.3,0,0,0.3,-0.69,0)"
         inkscape:connector-curvature="0" />
    </marker>
    <filter
       style="color-interpolation-filters:sRGB;"
       inkscape:label="Drop Shadow"
       id="filter4682">
      <feFlood
         flood-opacity="0.392157"
         flood-color="rgb(0,0,0)"
         result="flood"
         id="feFlood4672" />
      <feComposite
         in="flood"
         in2="SourceGraphic"
         operator="in"
         result="composite1"
         id="feComposite4674" />
      <feGaussianBlur
         in="composite1"
         stdDeviation="1.5"
         result="blur"
         id="feGaussianBlur4676" />
      <feOffset
         dx="0"
         dy="2"
         result="offset"
         id="feOffset4678" />
      <feComposite
         in="SourceGraphic"
         in2="offset"
         operator="over"
         result="composite2"
         id="feComposite4680" />
    </filter>
    <filter
       style="color-interpolation-filters:sRGB"
       inkscape:label="Drop Shadow"
       id="filter4682-5">
      <feFlood
         flood-opacity="0.392157"
         flood-color="rgb(0,0,0)"
         result="flood"
         id="feFlood4672-6" />
      <feComposite
         in="flood"
         in2="SourceGraphic"
         operator="in"
         result="composite1"
         id="feComposite4674-2" />
      <feGaussianBlur
         in="composite1"
         stdDeviation="1.5"
         result="blur"
         id="feGaussianBlur4676-6" />
      <feOffset
         dx="0"
         dy="2"
         result="offset"
         id="feOffset4678-3" />
      <feComposite
         in="SourceGraphic"
         in2="offset"
         operator="over"
         result="composite2"
         id="feComposite4680-2" />
    </filter>
    <filter
       style="color-interpolation-filters:sRGB"
       inkscape:label="Drop Shadow"
       id="filter4682-5-0">
      <feFlood
         flood-opacity="0.392157"
         flood-color="rgb(0,0,0)"
         result="flood"
         id="feFlood4672-6-3" />
      <feComposite
         in="flood"
         in2="SourceGraphic"
         operator="in"
         result="composite1"
         id="feComposite4674-2-6" />
      <feGaussianBlur
         in="composite1"
         stdDeviation="1.5"
         result="blur"
         id="feGaussianBlur4676-6-5" />
      <feOffset
         dx="0"
         dy="2"
         result="offset"
         id="feOffset4678-3-4" />
      <feComposite
         in="SourceGraphic"
         in2="offset"
         operator="over"
         result="composite2"
         id="feComposite4680-2-3" />
    </filter>
    <linearGradient
       id="linearGradient5984"
       osb:paint="solid">
      <stop
         style="stop-color:#000000;stop-opacity:1;"
         offset="0"
         id="stop5982" />
    </linearGradient>
    <style
       id="style2">.cls-1{opacity:0.3;}.cls-2{fill:#50b0ff;}.cls-3{fill:#fff;}.cls-4{fill:#fdc794;}.cls-5{fill:#874f21;}.cls-6{fill:#19603d;}.cls-7{fill:#079340;}</style>
    <clipPath
       id="clipPath940"
       clipPathUnits="userSpaceOnUse">
      <use
         height="100%"
         width="100%"
         id="use942"
         xlink:href="#g936"
         y="0"
         x="0" />
    </clipPath>
    <style
       id="style2-3">.cls-1{opacity:0.3;}.cls-2{fill:#079340;}.cls-3{fill:#fff;}.cls-4{fill:#fdc794;}.cls-5{fill:#874f21;}.cls-6{fill:#ff9a36;}.cls-7{fill:#f4821c;}</style>
    <style
       id="style2-35">.cls-1{opacity:0.3;}.cls-2{fill:#079340;}.cls-3{fill:#fff;}.cls-4{fill:#fdc794;}.cls-5{fill:#874f21;}.cls-6{fill:#ff9a36;}.cls-7{fill:#f4821c;}</style>
    <style
       id="style2-6">.cls-1{opacity:0.3;}.cls-2{fill:#50b0ff;}.cls-3{fill:#fff;}.cls-4{fill:#fdc794;}.cls-5{fill:#874f21;}.cls-6{fill:#19603d;}.cls-7{fill:#079340;}</style>
  </defs>
  <sodipodi:namedview
     id="base"
     pagecolor="#ffffff"
     bordercolor="#666666"
     borderopacity="1.0"
     inkscape:pageopacity="0.0"
     inkscape:pageshadow="2"
     inkscape:zoom="1"
     inkscape:cx="597.36502"
     inkscape:cy="103.06638"
     inkscape:document-units="mm"
     inkscape:current-layer="layer1"
     showgrid="false"
     units="px"
     showguides="false"
     inkscape:guide-bbox="true"
     inkscape:measure-start="328.222,229.558"
     inkscape:measure-end="369.106,220.169"
     inkscape:window-width="1920"
     inkscape:window-height="1012"
     inkscape:window-x="-8"
     inkscape:window-y="-8"
     inkscape:window-maximized="1">
    <sodipodi:guide
       position="22.997241,180.2006"
       orientation="1,0"
       id="guide1219"
       inkscape:locked="false" />
    <sodipodi:guide
       position="241.41979,184.00478"
       orientation="1,0"
       id="guide1229"
       inkscape:locked="false" />
    <sodipodi:guide
       position="132.45878,-4.6772165"
       orientation="1,0"
       id="guide1504"
       inkscape:locked="false" />
    <sodipodi:guide
       position="2.4321528,66.229386"
       orientation="0,1"
       id="guide1506"
       inkscape:locked="false" />
    <sodipodi:guide
       position="121.37761,66.229383"
       orientation="1,0"
       id="guide1508"
       inkscape:locked="false" />
    <sodipodi:guide
       position="143.60261,72.297392"
       orientation="1,0"
       id="guide1510"
       inkscape:locked="false" />
  </sodipodi:namedview>
  <metadata
     id="metadata5">
    <rdf:RDF>
      <cc:Work
         rdf:about="">
        <dc:format>image/svg+xml</dc:format>
        <dc:type
           rdf:resource="http://purl.org/dc/dcmitype/StillImage" />
        <dc:title></dc:title>
      </cc:Work>
    </rdf:RDF>
  </metadata>
  <g
     inkscape:label="Capa 1"
     inkscape:groupmode="layer"
     id="layer1"
     transform="translate(0,-164.70834)"
     style="display:inline">
    <rect
       style="display:inline;opacity:1;fill:#0098d7;fill-opacity:1;fill-rule:evenodd;stroke:none;stroke-width:1.58749998;stroke-linecap:round;stroke-linejoin:round;stroke-miterlimit:10;stroke-dasharray:none;stroke-dashoffset:0;stroke-opacity:1;paint-order:fill markers stroke"
       id="rect4502"
       width="264.58334"
       height="132.29167"
       x="0"
       y="164.70833"
       inkscape:export-xdpi="96"
       inkscape:export-ydpi="96"
       sodipodi:insensitive="true" />
    <g
       id="g1756"
       transform="matrix(1.1890741,0,0,1.1429111,94.524854,215.21583)"
       style="display:inline;stroke-width:0.22696137"
       inkscape:export-xdpi="96"
       inkscape:export-ydpi="96">
      <path
         id="path1742"
         d="M 2,12 H 62 V 52 H 2 Z"
         data-name="layer1"
         inkscape:connector-curvature="0"
         style="fill:#ffffff;fill-opacity:1;stroke-width:0.22696137" />
      <path
         id="path1744"
         d="M 32,39.379 2,12 V 52 H 62 V 12 L 41.185987,30.995563 Z"
         data-name="opacity"
         inkscape:connector-curvature="0"
         style="opacity:0.3;fill:#c0c0c0;fill-opacity:1;stroke-width:0.22696137"
         sodipodi:nodetypes="ccccccc" />
    </g>
    <path
       inkscape:export-ydpi="96"
       inkscape:export-xdpi="96"
       sodipodi:nodetypes="cccccc"
       inkscape:connector-curvature="0"
       id="rect5049-4-9-1-5-8"
       d="m 168.24758,232.48651 v 6.54034 35.62015 h -63.97175 -4.969163 c 67.370563,-3.02994 64.754423,-4.34396 68.940913,-42.16049 z"
       style="opacity:0.15;fill:#000000;fill-opacity:1;fill-rule:evenodd;stroke:none;stroke-width:0.53309411;stroke-linecap:square;stroke-linejoin:miter;stroke-miterlimit:1.41420996;stroke-dasharray:none;stroke-dashoffset:0;stroke-opacity:1;paint-order:fill markers stroke" />
    <rect
       style="opacity:1;fill:#fa9456;fill-opacity:1;fill-rule:evenodd;stroke:none;stroke-width:1.58750021;stroke-linecap:round;stroke-linejoin:round;stroke-miterlimit:10;stroke-dasharray:none;stroke-dashoffset:0;stroke-opacity:1;paint-order:fill markers stroke"
       id="rect4554-6-4-7"
       width="14.809764"
       height="1.9080915"
       x="101.95361"
       y="260.20883"
       inkscape:export-xdpi="96"
       inkscape:export-ydpi="96" />
    <rect
       style="opacity:1;fill:#fa9456;fill-opacity:1;fill-rule:evenodd;stroke:none;stroke-width:1.58750021;stroke-linecap:round;stroke-linejoin:round;stroke-miterlimit:10;stroke-dasharray:none;stroke-dashoffset:0;stroke-opacity:1;paint-order:fill markers stroke"
       id="rect4554-3-3-6-7"
       width="23.720724"
       height="1.9080915"
       x="101.95361"
       y="268.06171"
       inkscape:export-xdpi="96"
       inkscape:export-ydpi="96" />
    <rect
       style="opacity:1;fill:#fa9456;fill-opacity:1;fill-rule:evenodd;stroke:none;stroke-width:1.58750021;stroke-linecap:round;stroke-linejoin:round;stroke-miterlimit:10;stroke-dasharray:none;stroke-dashoffset:0;stroke-opacity:1;paint-order:fill markers stroke"
       id="rect4554-3-1-1-9-5"
       width="23.720724"
       height="1.9080915"
       x="101.95361"
       y="264.24548"
       inkscape:export-xdpi="96"
       inkscape:export-ydpi="96" />
    <ellipse
       style="display:inline;opacity:1;fill:#40c69e;fill-opacity:1;fill-rule:nonzero;stroke:none;stroke-width:0.60854167;stroke-linecap:butt;stroke-linejoin:miter;stroke-miterlimit:4;stroke-dasharray:none;stroke-opacity:1;paint-order:markers fill stroke"
       id="path4657"
       cx="164.26134"
       cy="270.33252"
       inkscape:export-xdpi="96"
       inkscape:export-ydpi="96"
       rx="12.016472"
       ry="12.016477" />
    <path
       id="path4646"
       d="m 162.17168,268.08445 -0.71577,1.09332 -0.55863,-0.85336 c -0.94856,-1.44879 -2.54295,-2.3138 -4.26486,-2.3138 v -1.20426 c 2.12457,0 4.09164,1.06712 5.26192,2.85468 z m 6.91575,9.88772 2.81608,-2.83871 -2.81608,-2.8387 -0.8448,0.85159 1.37392,1.38498 h -0.47421 c -1.72204,0 -3.31641,-0.865 -4.26487,-2.31379 l -0.55874,-0.85337 -0.71563,1.0932 0.2772,0.42353 c 1.17028,1.78744 3.13735,2.85468 5.26203,2.85468 h 0.47422 l -1.37394,1.38499 z m -7.19297,-5.09127 2.98301,-4.55649 c 0.94845,-1.44879 2.54283,-2.3138 4.26487,-2.3138 h 0.47421 l -1.37392,1.38498 0.8448,0.85161 2.81608,-2.83872 -2.81608,-2.83876 -0.8448,0.85163 1.37392,1.385 h -0.47421 c -2.12467,0 -4.09176,1.06712 -5.26204,2.85468 l -2.98302,4.55651 c -0.94856,1.44879 -2.54295,2.31379 -4.26486,2.31379 v 1.20425 c 2.12457,0 4.09176,-1.06712 5.26204,-2.85468 z m 0,0"
       inkscape:connector-curvature="0"
       style="fill:#ffffff;fill-opacity:1;stroke-width:0.35277775"
       inkscape:export-xdpi="96"
       inkscape:export-ydpi="96" />
    <path
       style="display:inline;opacity:0.15;fill:#000000;fill-opacity:1;fill-rule:nonzero;stroke:none;stroke-width:0.60854167;stroke-linecap:butt;stroke-linejoin:miter;stroke-miterlimit:4;stroke-dasharray:none;stroke-opacity:1;paint-order:markers fill stroke"
       d="m 176.27805,270.3325 c 0,0.46325 -0.0263,0.92037 -0.0772,1.36997 -0.67995,5.9914 -5.76597,10.6465 -11.93923,10.6465 -2.48993,0 -4.80297,-0.7573 -6.72136,-2.05414 -0.50234,-0.33957 -0.97761,-0.71615 -1.42191,-1.12581 8.14327,3.17995 16.028,-0.31098 20.11597,-9.86948 0.029,0.34047 0.0438,0.68499 0.0438,1.03296 z"
       id="path4657-6"
       inkscape:connector-curvature="0"
       sodipodi:nodetypes="ssssccs"
       inkscape:export-xdpi="96"
       inkscape:export-ydpi="96" />
    <g
       id="g1110"
       transform="matrix(0.54741379,0,0,0.54741379,41.719759,213.04977)"
       style="stroke-width:0.48333332">
      <g
         style="display:inline;stroke-width:0.48333332"
         data-name="Capa 33"
         id="Capa_33"
         inkscape:groupmode="layer">
        <path
           style="display:inline;fill:#fd8369;fill-opacity:1;stroke-width:0.48333332"
           inkscape:connector-curvature="0"
           id="path10"
           d="m 40.037794,54.981962 a 27,27.000011 0 1 1 27,-27.00001 27,27.000011 0 0 1 -27,27.00001 z"
           class="cls-2" />
        <path
           style="display:inline;fill:#0098d7;fill-opacity:1;stroke-width:0.48333332"
           inkscape:connector-curvature="0"
           id="path12"
           d="M 40.037794,2.9819414 A 25,25.000007 0 1 1 15.037797,27.981952 25,25.000007 0 0 1 40.037794,2.9819414 m 0,-4.0000014 a 29,29.000011 0 1 0 29,29.000012 29,29.000011 0 0 0 -29,-29.000012 z"
           class="cls-3" />
      </g>
      <g
         style="display:inline;stroke:none;stroke-width:0.48333332;stroke-opacity:1"
         id="user"
         inkscape:label="user"
         transform="translate(8.0378019,-4.0180612)">
        <path
           style="fill:#fdc794;stroke:none;stroke-width:0.48333332;stroke-opacity:1"
           inkscape:connector-curvature="0"
           id="path15"
           d="M 43.69,44.34 C 37.2,43.11 37.2,41.09 37.2,39.79 V 39 a 11.82,11.82 0 0 0 3.38,-5.72 h 0.06 c 1.95,0 2.47,-4.09 2.47,-4.74 0,-0.65 0.06,-3.05 -1.95,-3.05 C 45.38,13.82 34,9.14 25.44,15.12 c -3.51,0 -3.83,5.2 -2.53,10.39 -2,0 -1.95,2.47 -1.95,3.05 0,0.58 0.45,4.74 2.47,4.74 A 11.82,11.82 0 0 0 26.8,39 v 0.78 c 0,1.3 0,3.38 -6.49,4.55 a 9.42,9.42 0 0 0 -7.53,7.14 h 38.44 a 9.55,9.55 0 0 0 -7.53,-7.13 z"
           class="cls-4" />
        <path
           style="fill:#874f21;stroke:none;stroke-width:0.48333332;stroke-opacity:1"
           inkscape:connector-curvature="0"
           id="path17"
           d="m 39.55,19.18 c 1.32,0 1.54,6 1.61,6.32 C 45.38,13.82 34,9.14 25.44,15.12 c -3.51,0 -3.83,5.2 -2.53,10.39 0.22,-0.41 1.21,-6.32 3.18,-6.32 0,0 1,0.3 6.59,0.3 a 67.8,67.8 0 0 0 6.87,-0.31 z"
           class="cls-5" />
        <path
           style="fill:#19603d;stroke:none;stroke-width:0.48333332;stroke-opacity:1"
           inkscape:connector-curvature="0"
           id="path19"
           d="M 43.69,44.34 A 15.4,15.4 0 0 1 39.07,42.87 12.86,12.86 0 0 1 32,44.82 12.88,12.88 0 0 1 25,42.89 14.82,14.82 0 0 1 20.36,44.35 9.42,9.42 0 0 0 12.83,51.49 H 51.22 A 9.55,9.55 0 0 0 43.69,44.34 Z"
           class="cls-6" />
        <path
           style="fill:#079340;stroke:none;stroke-width:0.48333332;stroke-opacity:1"
           inkscape:connector-curvature="0"
           id="path21"
           d="m 43.69,44.34 c -0.7,-0.13 -1.32,-0.28 -1.88,-0.43 -0.45,3.27 -7.81,3.86 -9.81,3.86 -2,0 -9.35,-0.58 -9.81,-3.84 -0.56,0.15 -1.17,0.28 -1.88,0.41 a 9.42,9.42 0 0 0 -7.53,7.14 l 5.55,2.72 8.76,4.53 h 9.74 l 8.91,-4.53 5.48,-2.72 a 9.55,9.55 0 0 0 -7.53,-7.14 z"
           class="cls-7" />
        <path
           style="display:inline;fill:#0098d7;fill-opacity:1;stroke:none;stroke-width:0.48333332;stroke-opacity:1"
           inkscape:connector-curvature="0"
           id="path23"
           d="M 32,7 A 25,25 0 1 1 7,32 25,25 0 0 1 32,7 M 32,3 A 29,29 0 1 0 61,32 29,29 0 0 0 32,3 Z"
           class="cls-3" />
        <g
           style="opacity:1;stroke:none;stroke-width:0.48333332;stroke-opacity:1"
           transform="translate(-61.558935,-1.7302672)"
           clip-path="url(#clipPath940)"
           id="g938">
          <g
             id="g936"
             inkscape:label="Clip"
             style="stroke:none;stroke-width:0.48333332;stroke-opacity:1">
            <path
               class="cls-5"
               d="m 98.924816,35.205284 c 1.743204,-0.0498 3.643534,-3.867621 3.713534,-4.187621 0,2.006472 -0.0988,2.512791 -0.38928,3.594534 -0.61929,2.306465 -1.5114,4.014255 -3.03701,5.659446 -1.580696,1.704595 -3.770747,2.353946 -5.611374,2.338357 -2.303494,-0.01951 -4.032214,-0.504121 -5.933472,-2.577685 -1.648505,-2.091399 -2.01013,-2.619311 -2.703313,-4.966063 -0.223779,-0.757599 -0.113316,-2.699723 -0.206966,-4.009723 0.22,0.41 1.422495,4.138755 3.39249,4.138755 1.271927,0 3.313977,-2.097729 5.404398,-2.07376 2.29377,-0.01295 3.668915,2.132381 5.370993,2.08376 z"
               id="path17-6-4"
               inkscape:connector-curvature="0"
               style="opacity:1;fill:#874f21;stroke:none;stroke-width:0.48333332;stroke-opacity:1"
               sodipodi:nodetypes="scssscscscs" />
            <rect
               style="opacity:1;fill:#fdc794;fill-opacity:1;fill-rule:nonzero;stroke:none;stroke-width:14.49999905;stroke-linecap:butt;stroke-linejoin:miter;stroke-miterlimit:10;stroke-dasharray:none;stroke-opacity:1;paint-order:markers fill stroke"
               id="rect926"
               width="5.5593219"
               height="1.3898305"
               x="90.778"
               y="35.188396"
               ry="0.69491524"
               rx="2.1694915" />
          </g>
        </g>
      </g>
    </g>
    <g
       id="g1270"
       transform="matrix(0.54741381,0,0,0.54741399,147.70676,179.1572)"
       style="stroke-width:0.48333332">
      <g
         style="stroke-width:0.48333332"
         data-name="Capa 33"
         id="Capa_33-6">
        <path
           style="display:inline;fill:#9dc854;fill-opacity:1;stroke:none;stroke-width:0.48333332;stroke-opacity:1"
           inkscape:connector-curvature="0"
           id="path10-6"
           d="M 32,59 A 27,27 0 1 1 59,32 27,27 0 0 1 32,59 Z"
           class="cls-2" />
      </g>
      <g
         transform="translate(1.1505463,-1.6299405)"
         id="women-5"
         style="stroke-width:0.48333332">
        <path
           sodipodi:nodetypes="sccssccssccccs"
           style="fill:#fdc794;fill-opacity:1;stroke-width:0.48333332"
           inkscape:connector-curvature="0"
           id="path15-0"
           d="m 41.362698,23.159029 c 0,11.378264 2.577172,12.570078 5.286767,15.279674 -3.466003,0.842812 -7.01691,1.287103 -10.58372,1.324238 v 1.324237 c 0,1.324239 -0.264848,3.972715 6.346158,5.286767 6.611005,1.314052 6.875853,6.611007 6.875853,6.611007 H 12.260013 c 0,0 0,-5.286768 6.478582,-6.611007 6.478582,-1.324239 6.743429,-3.972715 6.743429,-5.286767 v -1.324237 c -3.566757,-0.03794 -7.117572,-0.482213 -10.583721,-1.324238 2.709596,-2.709596 5.286768,-3.90141 5.286768,-15.279674 0,0 0,-8.352889 7.935243,-8.352889 0.01018,0.01018 13.242384,-3.774727 13.242384,8.352889 z"
           class="cls-4" />
        <path
           sodipodi:nodetypes="cccccsccccsccccsscccc"
           style="display:inline;fill:#874f21;fill-opacity:1;stroke-width:0.48333332"
           inkscape:connector-curvature="0"
           id="path17-4"
           d="m 39.946782,39.569399 1.242747,-0.152798 c 0.42783,0 0.804729,-0.101864 1.130696,-0.152797 1.130695,-0.162982 1.803001,-0.315779 2.842018,-0.509322 0.499137,-0.101864 1.018645,-0.193542 1.487222,-0.31578 C 43.93987,35.729107 41.540511,34.535903 41.362698,23.159029 41.167365,10.66112 28.120314,14.80614 28.120314,14.80614 c -7.935243,0 -7.935243,8.352889 -7.935243,8.352889 0,11.378264 -2.577172,12.570078 -5.286768,15.279674 0.48895,0.122237 1.018645,0.213915 1.487222,0.315779 0.794543,0.152797 1.680764,0.376899 2.566985,0.519509 0.886221,0.14261 1.803002,0.173169 2.638291,0.275034 1.293678,0.122238 2.587358,0.20373 3.881036,0.224102 -4.400546,-4.492224 -1.477034,-12.284857 -0.468577,-15.860301 0.180653,-0.637351 0.74447,-1.090857 1.405731,-1.130696 h 2.149341 c 0.967712,0 3.975146,-1.656878 6.083101,-1.229287 1.638248,0.332311 1.877712,0.647226 2.300346,1.402457 0.825103,4.808003 2.03729,14.016553 -0.876034,16.878945 v 0 c 1.297519,-0.01797 2.593105,-0.106382 3.881037,-0.264846 z"
           class="cls-5" />
        <path
           style="fill:#ff9a36;fill-opacity:1;stroke-width:0.48333332"
           inkscape:connector-curvature="0"
           id="path19-7"
           d="m 42.422089,46.384132 a 13.354434,13.354434 0 0 1 -4.18663,-1.538153 c -1.191815,0.733424 -4.07458,1.364983 -7.446295,1.364983 -3.544884,0 -6.539701,-0.570441 -7.619464,-1.364983 a 14.311962,14.311962 0 0 1 -4.431105,1.538153 c -6.478582,1.324239 -6.478582,6.611006 -6.478582,6.611006 h 37.037929 c 0,0 -0.264848,-5.296954 -6.875853,-6.611006 z"
           class="cls-6" />
        <path
           style="fill:#f4821c;fill-opacity:1;stroke-width:0.48333332"
           inkscape:connector-curvature="0"
           id="path21-8"
           d="m 41.637732,46.210962 c -0.509322,1.538155 -4.81819,3.055936 -10.858755,3.055936 -6.386903,0 -11.052297,-1.354798 -11.052297,-3.055936 0,0 0,0 0,-0.06112 l -1.018645,0.224102 c -6.478581,1.324239 -6.478581,6.611007 -6.478581,6.611007 l 6.784174,4.604274 7.619465,2.770715 h 7.303683 l 9.840111,-2.770715 5.521055,-4.61446 c 0,0 -0.427831,-5.765532 -7.66021,-6.763804 z"
           class="cls-7" />
        <path
           style="display:inline;fill:#0098d7;fill-opacity:1;stroke:none;stroke-width:0.48333311;stroke-opacity:1"
           inkscape:connector-curvature="0"
           id="path23-9"
           d="M 30.849448,8.6299383 A 25.000006,25.000006 0 1 1 5.8494498,33.629941 25.000006,25.000006 0 0 1 30.849448,8.6299383 m 0,-3.9999958 A 28.999999,28.999999 0 1 0 59.849452,33.629941 28.999999,28.999999 0 0 0 30.849448,4.6299425 Z"
           class="cls-3" />
      </g>
    </g>
    <g
       id="g1316"
       transform="matrix(0.54741379,0,0,0.54741397,183.83176,210.85021)"
       style="stroke-width:0.48333332">
      <g
         inkscape:label="Capa_33"
         style="display:inline;stroke-width:0.48333332"
         data-name="Capa 33"
         id="Capa_33-89">
        <path
           style="display:inline;fill:#a797b5;fill-opacity:1;stroke-width:0.48333332"
           inkscape:connector-curvature="0"
           id="path10-8"
           d="M 32,59 A 27,27 0 1 1 59,32 27,27 0 0 1 32,59 Z"
           class="cls-2" />
        <path
           style="display:inline;fill:#0098d7;fill-opacity:1;stroke-width:0.48333332"
           inkscape:connector-curvature="0"
           id="path12-0"
           d="M 32,7 A 25,25 0 1 1 7,32 25,25 0 0 1 32,7 M 32,3 A 29,29 0 1 0 61,32 29,29 0 0 0 32,3 Z"
           class="cls-3" />
      </g>
      <g
         style="display:inline;stroke-width:0.48333332"
         id="user-5">
        <path
           style="fill:#fdc794;stroke-width:0.48333332"
           inkscape:connector-curvature="0"
           id="path15-1"
           d="M 43.69,44.34 C 37.2,43.11 37.2,41.09 37.2,39.79 V 39 a 11.82,11.82 0 0 0 3.38,-5.72 h 0.06 c 1.95,0 2.47,-4.09 2.47,-4.74 0,-0.65 0.06,-3.05 -1.95,-3.05 C 45.38,13.82 34,9.14 25.44,15.12 c -3.51,0 -3.83,5.2 -2.53,10.39 -2,0 -1.95,2.47 -1.95,3.05 0,0.58 0.45,4.74 2.47,4.74 A 11.82,11.82 0 0 0 26.8,39 v 0.78 c 0,1.3 0,3.38 -6.49,4.55 a 9.42,9.42 0 0 0 -7.53,7.14 h 38.44 a 9.55,9.55 0 0 0 -7.53,-7.13 z"
           class="cls-4" />
        <path
           style="fill:#ffdbaa;fill-opacity:1;stroke-width:0.48333332"
           inkscape:connector-curvature="0"
           id="path17-7"
           d="m 39.55,19.18 c 1.32,0 1.54,6 1.61,6.32 C 45.38,13.82 34,9.14 25.44,15.12 c -3.51,0 -3.83,5.2 -2.53,10.39 0.22,-0.41 1.21,-6.32 3.18,-6.32 0,0 1,0.3 6.59,0.3 a 67.8,67.8 0 0 0 6.87,-0.31 z"
           class="cls-5" />
        <path
           style="fill:#33536a;fill-opacity:1;stroke-width:0.48333332"
           inkscape:connector-curvature="0"
           id="path19-9"
           d="M 43.69,44.34 A 15.4,15.4 0 0 1 39.07,42.87 12.86,12.86 0 0 1 32,44.82 12.88,12.88 0 0 1 25,42.89 14.82,14.82 0 0 1 20.36,44.35 9.42,9.42 0 0 0 12.83,51.49 H 51.22 A 9.55,9.55 0 0 0 43.69,44.34 Z"
           class="cls-6" />
        <path
           style="fill:#4e6d7f;fill-opacity:1;stroke-width:0.48333332"
           inkscape:connector-curvature="0"
           id="path21-6"
           d="m 43.69,44.34 c -0.7,-0.13 -1.32,-0.28 -1.88,-0.43 -0.45,3.27 -7.81,3.86 -9.81,3.86 -2,0 -9.35,-0.58 -9.81,-3.84 -0.56,0.15 -1.17,0.28 -1.88,0.41 a 9.42,9.42 0 0 0 -7.53,7.14 l 5.55,2.72 8.76,4.53 h 9.74 l 8.91,-4.53 5.48,-2.72 a 9.55,9.55 0 0 0 -7.53,-7.14 z"
           class="cls-7" />
        <path
           style="display:inline;fill:#0098d7;fill-opacity:1;stroke-width:0.48333332"
           inkscape:connector-curvature="0"
           id="path23-8"
           d="M 32,7 A 25,25 0 1 1 7,32 25,25 0 0 1 32,7 M 32,3 A 29,29 0 1 0 61,32 29,29 0 0 0 32,3 Z"
           class="cls-3" />
      </g>
    </g>
    <path
       id="path4646-2-7-4-2-8-2"
       d="m 112.23085,212.90169 -0.22366,-0.38742 -0.69309,1.897 -1.2234,-0.21377 1.4214,-3.88803 4.07787,0.71305 -0.42657,1.16636 -1.9894,-0.34826 0.22368,0.38742 c 2.02397,3.5056 4.38604,7.59689 7.95825,13.78411 l -1.16645,0.67344 z"
       inkscape:connector-curvature="0"
       style="display:inline;opacity:0.6;fill:#ffffff;fill-opacity:1;stroke-width:0.35277775"
       inkscape:export-xdpi="96"
       inkscape:export-ydpi="96"
       sodipodi:nodetypes="cccccccccccc" />
    <path
       id="path4646-2-7-4-2-8-2-4"
       d="m 152.78208,212.87056 0.22366,-0.38742 0.69309,1.897 1.2234,-0.21377 -1.4214,-3.88803 -4.07787,0.71305 0.42657,1.16636 1.9894,-0.34826 -0.22368,0.38742 c -2.02397,3.5056 -4.38604,7.59689 -7.95825,13.78411 l 1.16645,0.67344 z"
       inkscape:connector-curvature="0"
       style="display:inline;opacity:0.6;fill:#ffffff;fill-opacity:1;stroke-width:0.35277775"
       inkscape:export-xdpi="96"
       inkscape:export-ydpi="96"
       sodipodi:nodetypes="cccccccccccc" />
    <path
       id="path4646-2-7-4-2-8-2-4-6"
       d="m 184.45078,241.91685 0.3874,-0.22368 -0.34827,1.98939 1.16639,0.42657 0.71304,-4.07783 -3.88806,-1.42142 -0.21376,1.22339 1.897,0.69309 -0.38742,0.22368 c -3.50561,2.02395 -7.59687,4.38608 -13.7841,7.95825 l 0.67346,1.16645 z"
       inkscape:connector-curvature="0"
       style="display:inline;opacity:0.6;fill:#ffffff;fill-opacity:1;stroke-width:0.35277775"
       inkscape:export-xdpi="96"
       inkscape:export-ydpi="96"
       sodipodi:nodetypes="cccccccccccc" />
    <path
       id="path4646-2-7-4-2-8-2-1"
       d="m 80.403568,241.84774 -0.387405,-0.22368 0.348266,1.98939 -1.16638,0.42657 -0.713047,-4.07783 3.888064,-1.42142 0.21376,1.22339 -1.897001,0.69309 0.387423,0.22368 c 3.505609,2.02395 7.596867,4.38608 13.784096,7.95825 l -0.673455,1.16645 z"
       inkscape:connector-curvature="0"
       style="display:inline;opacity:0.6;fill:#ffffff;fill-opacity:1;stroke-width:0.35277775"
       inkscape:export-xdpi="96"
       inkscape:export-ydpi="96"
       sodipodi:nodetypes="cccccccccccc" />
  </g>
  <g
     id="g1227"
     transform="matrix(0.54741379,0,0,0.54741397,82.282759,13.079633)"
     style="stroke-width:0.48333332">
    <g
       style="stroke-width:0.48333332"
       data-name="Capa 33"
       id="Capa_33-8">
      <path
         style="display:inline;fill:#5dddd3;fill-opacity:1;stroke:none;stroke-width:0.48333332;stroke-opacity:1"
         inkscape:connector-curvature="0"
         id="path10-2"
         d="M 32,59 A 27,27 0 1 1 59,32 27,27 0 0 1 32,59 Z"
         class="cls-2" />
    </g>
    <g
       style="stroke-width:0.46421033"
       transform="matrix(1.0411947,0,0,1.0411947,-0.33407098,-3.0076372)"
       id="women">
      <path
         sodipodi:nodetypes="sccssccssccccs"
         style="fill:#a2795c;fill-opacity:1;stroke-width:0.46421033"
         inkscape:connector-curvature="0"
         id="path15-8"
         d="m 41.1517,23.565932 c 0,10.928085 2.475173,12.072746 5.07753,14.675136 -3.328828,0.809467 -6.739199,1.23618 -10.164844,1.271846 v 1.271845 c 0,1.271845 -0.254365,3.815535 6.094993,5.077597 6.349359,1.262061 6.603724,6.349442 6.603724,6.349442 H 13.200826 c 0,0 0,-5.077597 6.222175,-6.349442 6.222176,-1.271845 6.476542,-3.815536 6.476542,-5.077597 v -1.271845 c -3.425594,-0.03643 -6.835877,-0.463134 -10.164844,-1.271846 2.602357,-2.60239 5.07753,-3.747051 5.07753,-14.675136 0,0 0,-8.022407 7.621187,-8.022407 0.0098,0.0098 12.718284,-3.62538 12.718284,8.022407 z"
         class="cls-4" />
      <path
         sodipodi:nodetypes="cccccsccccsccccsscccc"
         style="display:inline;fill:#623f33;fill-opacity:1;stroke-width:0.46421033"
         inkscape:connector-curvature="0"
         id="path17-0"
         d="m 39.791822,39.327029 1.193562,-0.146752 c 0.410898,0 0.77288,-0.09783 1.085945,-0.146751 1.085946,-0.156535 1.731644,-0.303286 2.72954,-0.489171 0.479381,-0.09783 0.978329,-0.185885 1.428361,-0.303287 -2.602357,-2.60239 -4.906755,-3.748385 -5.07753,-14.675136 -0.187603,-12.00343 -12.718284,-8.022407 -12.718284,-8.022407 -7.621187,0 -7.621187,8.022407 -7.621187,8.022407 0,10.928085 -2.475173,12.072746 -5.07753,14.675136 0.469598,0.117402 0.97833,0.205452 1.428361,0.303287 0.763097,0.146751 1.614244,0.361986 2.465391,0.498954 0.851146,0.136968 1.731643,0.166318 2.533873,0.264153 1.242479,0.117401 2.484957,0.195668 3.727435,0.215235 -4.226383,-4.31449 -1.418577,-11.798809 -0.450031,-15.232791 0.173503,-0.612134 0.715005,-1.047697 1.350095,-1.08596 h 2.064275 c 0.929413,0 3.817819,-1.591324 5.842347,-1.180651 1.573411,0.319164 1.803398,0.621619 2.209305,1.346969 0.792447,4.617776 1.956659,13.461991 -0.841364,16.211134 v 0 c 1.246167,-0.01726 2.490477,-0.102174 3.727436,-0.254369 z"
         class="cls-5" />
      <path
         style="fill:#ffc33d;fill-opacity:1;stroke-width:0.46421033"
         inkscape:connector-curvature="0"
         id="path19-8"
         d="m 42.169162,45.872139 a 12.8259,12.826069 0 0 1 -4.020934,-1.477297 c -1.144645,0.704407 -3.913318,1.310979 -7.151589,1.310979 -3.404586,0 -6.280875,-0.547872 -7.317904,-1.310979 a 13.745529,13.745711 0 0 1 -4.255734,1.477297 c -6.222175,1.271845 -6.222175,6.349442 -6.222175,6.349442 h 35.57206 c 0,0 -0.254365,-5.08738 -6.603724,-6.349442 z"
         class="cls-6" />
      <path
         style="fill:#ffd739;fill-opacity:1;stroke-width:0.46421033"
         inkscape:connector-curvature="0"
         id="path21-5"
         d="m 41.415849,45.705821 c -0.489165,1.477297 -4.627499,2.935027 -10.428993,2.935027 -6.134126,0 -10.614875,-1.301195 -10.614875,-2.935027 0,0 0,0 0,-0.0587 l -0.978329,0.215236 c -6.222176,1.271845 -6.222176,6.349442 -6.222176,6.349442 l 6.515674,4.422108 7.317905,2.661091 h 7.014623 l 9.450663,-2.661091 5.302545,-4.431891 c 0,0 -0.410898,-5.537418 -7.357037,-6.496195 z"
         class="cls-7" />
      <path
         style="display:inline;fill:#0098d7;fill-opacity:1;stroke:none;stroke-width:0.46421021;stroke-opacity:1"
         inkscape:connector-curvature="0"
         id="path23-0"
         d="M 31.054775,9.6116822 A 24.010886,24.010886 0 1 1 7.0438972,33.622565 24.010886,24.010886 0 0 1 31.054775,9.6116822 m 0,-3.8417368 A 27.85262,27.85262 0 1 0 58.907399,33.622565 27.85262,27.85262 0 0 0 31.054775,5.7699454 Z"
         class="cls-3" />
    </g>
  </g>
</svg>
