<svg id="Capa_1" enable-background="new 0 0 512 512" height="512" viewBox="0 0 512 512" width="512" xmlns="http://www.w3.org/2000/svg"><g><path d="m475.43 73.14v402.29h-402.29v-73.14l329.15-329.15z" fill="#ffa001"/><path d="m475.43 73.14v402.29h-201.14v-274.29l128-128z" fill="#f87f02"/><path d="m402.29 0v402.29h-402.29v-402.29h146.23l54.91 14 54.92-14z" fill="#ffda2d"/><path d="m402.29 0v402.29h-201.15v-388.29l54.92-14z" fill="#fcbe00"/><g fill="#ffa001"><path d="m68.857 309.857h98.857v30h-98.857z"/><path d="m68.857 241h49.431v30h-49.431z"/><path d="m256.06 0v141.53l-54.92-31.7-54.91 31.7v-141.53z"/></g><path d="m256.06 0v141.53l-54.92-31.7v-109.83z" fill="#f87f02"/><path d="m512 402.29c0 60.59-49.12 109.71-109.71 109.71-60.6 0-109.72-49.12-109.72-109.71 0-60.6 49.12-109.72 109.72-109.72 60.59 0 109.71 49.12 109.71 109.72z" fill="#fe4a4a"/><path d="m512 402.29c0 60.59-49.12 109.71-109.71 109.71v-219.43c60.59 0 109.71 49.12 109.71 109.72z" fill="#e80b6a"/><path d="m423.5 402.29 24.35 24.34-21.22 21.22-24.34-24.35-24.34 24.35-21.22-21.22 24.35-24.34-24.35-24.34 21.22-21.22 24.34 24.35 24.34-24.35 21.22 21.22z" fill="#f3fdff"/><path d="m423.5 402.29 24.35 24.34-21.22 21.22-24.34-24.35v-42.42l24.34-24.35 21.22 21.22z" fill="#d7f3f7"/></g></svg>