<svg id="Capa_1" enable-background="new 0 0 512 512" height="512" viewBox="0 0 512 512" width="512" xmlns="http://www.w3.org/2000/svg"><g><path d="m316 0h-150-30l-120 120v301h150 150z" fill="#edf5ff"/><g fill="#d5e8fe"><path d="m166 0h150v421h-150z"/><path d="m76 180h90 60v-30h-60-90z"/><path d="m226 210h-60-90v30h90 60z"/><path d="m226 270h-60-90v30h90 60z"/><path d="m226 330h-60-90v30h90 60z"/></g><path d="m166 150h60v30h-60z" fill="#b5dbff"/><path d="m166 210h60v30h-60z" fill="#b5dbff"/><path d="m166 270h60v30h-60z" fill="#b5dbff"/><path d="m166 330h60v30h-60z" fill="#b5dbff"/><path d="m136 120v-120h-21.211l-98.789 98.789v21.211z" fill="#d5e8fe"/><path d="m376 330c-8.291 0-15 6.709-15 15v167h30v-167c0-8.291-6.709-15-15-15z" fill="#47568c"/><path d="m376 512h15v-167c0-8.291-6.709-15-15-15z" fill="#29376d"/><circle cx="376" cy="240" fill="#6be62e" r="120"/><path d="m496 240c0-66.275-53.725-120-120-120v240c66.275 0 120-53.725 120-120z" fill="#44cc29"/><path d="m421 188.789-45 45-15 15-30-30-21.211 21.211 51.211 51.211 15-15 66.211-66.211z" fill="#edf5ff"/><path d="m421 188.789-45 45v42.422l66.211-66.211z" fill="#d5e8fe"/></g></svg>