<?xml version="1.0" encoding="iso-8859-1"?>
<!-- Generator: Adobe Illustrator 19.0.0, SVG Export Plug-In . SVG Version: 6.00 Build 0)  -->
<svg version="1.1" id="Capa_1" xmlns="http://www.w3.org/2000/svg" xmlns:xlink="http://www.w3.org/1999/xlink" x="0px" y="0px"
	 viewBox="0 0 512 512" style="enable-background:new 0 0 512 512;" xml:space="preserve">
<path style="fill:#EDEBED;" d="M421.161,0H90.839c-4.561,0-8.258,3.697-8.258,8.258v364.774c0,4.381,1.74,8.582,4.838,11.679
	l56.392,56.387c3.097,3.097,7.298,4.837,11.678,4.837h265.673c4.56,0,8.258-3.698,8.258-8.258V8.258
	C429.419,3.697,425.721,0,421.161,0z"/>
<path style="fill:#9C969E;" d="M305.548,107.355h-74.323c-4.565,0-8.258-3.694-8.258-8.258c0-4.565,3.694-8.258,8.258-8.258h74.323
	c4.565,0,8.258,3.694,8.258,8.258S310.113,107.355,305.548,107.355z"/>
<path style="fill:#AEA8AF;" d="M330.323,140.387h-99.097c-4.565,0-8.258-3.694-8.258-8.258s3.694-8.258,8.258-8.258h99.097
	c4.565,0,8.258,3.694,8.258,8.258C338.581,136.693,334.887,140.387,330.323,140.387z"/>
<path style="fill:#9C969E;" d="M313.806,206.452h-82.581c-4.565,0-8.258-3.694-8.258-8.258c0-4.565,3.694-8.258,8.258-8.258h82.581
	c4.565,0,8.258,3.694,8.258,8.258C322.065,202.758,318.371,206.452,313.806,206.452z"/>
<path style="fill:#AEA8AF;" d="M313.806,239.484h-82.581c-4.565,0-8.258-3.694-8.258-8.258c0-4.565,3.694-8.258,8.258-8.258h82.581
	c4.565,0,8.258,3.694,8.258,8.258C322.065,235.79,318.371,239.484,313.806,239.484z"/>
<path style="fill:#9C969E;" d="M313.806,305.548h-82.581c-4.565,0-8.258-3.694-8.258-8.258s3.694-8.258,8.258-8.258h82.581
	c4.565,0,8.258,3.694,8.258,8.258S318.371,305.548,313.806,305.548z"/>
<path style="fill:#AEA8AF;" d="M313.806,338.581h-82.581c-4.565,0-8.258-3.694-8.258-8.258s3.694-8.258,8.258-8.258h82.581
	c4.565,0,8.258,3.694,8.258,8.258S318.371,338.581,313.806,338.581z"/>
<g>
	<path style="fill:#5D5360;" d="M151.065,129.71c1.613,1.613,3.726,2.419,5.839,2.419s4.226-0.806,5.839-2.419l41.29-41.29
		c3.226-3.226,3.226-8.452,0-11.677c-3.226-3.226-8.452-3.226-11.677,0l-35.452,35.452L137.969,93.26
		c-3.226-3.226-8.452-3.226-11.677,0s-3.226,8.452,0,11.677L151.065,129.71z"/>
	<path style="fill:#5D5360;" d="M192.355,175.839l-35.452,35.452l-18.935-18.935c-3.226-3.226-8.452-3.226-11.677,0
		c-3.226,3.226-3.226,8.452,0,11.677l24.774,24.774c1.613,1.613,3.726,2.419,5.839,2.419s4.226-0.806,5.839-2.419l41.29-41.29
		c3.226-3.226,3.226-8.452,0-11.677C200.806,172.613,195.581,172.613,192.355,175.839z"/>
	<path style="fill:#5D5360;" d="M195.774,283.194c-3.226-3.226-8.452-3.226-11.677,0l-18.935,18.935l-18.935-18.935
		c-3.226-3.226-8.452-3.226-11.677,0c-3.226,3.226-3.226,8.452,0,11.677l18.935,18.935l-18.935,18.935
		c-3.226,3.226-3.226,8.452,0,11.677c1.613,1.613,3.726,2.419,5.839,2.419s4.226-0.806,5.839-2.419l18.935-18.935l18.935,18.935
		c1.613,1.613,3.726,2.419,5.839,2.419s4.226-0.806,5.839-2.419c3.226-3.226,3.226-8.452,0-11.677l-18.935-18.935l18.935-18.935
		C199,291.645,199,286.419,195.774,283.194z"/>
</g>
<path style="fill:#DBD9DC;" d="M87.418,384.711l56.392,56.387c1.406,1.406,3.06,2.49,4.835,3.301v-64.528h-64.53
	C84.926,381.648,86.011,383.304,87.418,384.711z"/>
<path style="fill:#FFE17D;" d="M379.871,512h-24.774c-4.561,0-8.258-3.697-8.258-8.258V202.485c0-2.84,0.488-5.658,1.443-8.332
	l15.313-42.877c1.305-3.654,6.472-3.654,7.777,0l15.313,42.877c0.955,2.674,1.443,5.493,1.443,8.332v301.257
	C388.129,508.303,384.432,512,379.871,512z"/>
<path style="fill:#FFD164;" d="M355.096,512h12.387V148.534c-1.619,0-3.236,0.913-3.889,2.74l-15.313,42.878
	c-0.955,2.674-1.444,5.493-1.444,8.333v301.257C346.839,508.302,350.536,512,355.096,512z"/>
<path style="fill:#FAEBC8;" d="M346.839,202.485v3.967h41.29v-3.967c0-2.84-0.488-5.658-1.444-8.333l-15.313-42.877
	c-1.305-3.654-6.472-3.654-7.777,0l-15.313,42.877C347.327,196.827,346.839,199.645,346.839,202.485z"/>
<path style="fill:#F5DCB4;" d="M363.595,151.275l-15.313,42.878c-0.955,2.674-1.444,5.493-1.444,8.333v3.967h20.645v-57.917
	C365.865,148.534,364.247,149.448,363.595,151.275z"/>
<path style="fill:#FFC350;" d="M346.839,478.968v24.774c0,4.56,3.697,8.258,8.258,8.258h24.774c4.56,0,8.258-3.698,8.258-8.258
	v-24.774H346.839z"/>
<path style="fill:#E6AA46;" d="M346.839,478.968v24.774c0,4.56,3.697,8.258,8.258,8.258h12.387v-33.032L346.839,478.968
	L346.839,478.968z"/>
<path style="fill:#5D5360;" d="M355.688,173.419h23.593l-7.908-22.144c-1.305-3.654-6.472-3.654-7.777,0L355.688,173.419z"/>
<g>
</g>
<g>
</g>
<g>
</g>
<g>
</g>
<g>
</g>
<g>
</g>
<g>
</g>
<g>
</g>
<g>
</g>
<g>
</g>
<g>
</g>
<g>
</g>
<g>
</g>
<g>
</g>
<g>
</g>
</svg>
